<?xml version="1.0" encoding="utf-8"?>
<!-- Generator: Adobe Illustrator 20.0.0, SVG Export Plug-In . SVG Version: 6.00 Build 0)  -->
<svg version="1.1" id="Layer_1" xmlns="http://www.w3.org/2000/svg" xmlns:xlink="http://www.w3.org/1999/xlink" x="0px" y="0px"
	 viewBox="0 0 40 40" style="enable-background:new 0 0 40 40;" xml:space="preserve">
<style type="text/css">
	.st0{fill:#FCFC6F;}
</style>
<path class="st0" d="M19.8,0.5C9.1,0.5,0.5,9.1,0.5,19.8s8.6,19.3,19.3,19.3s19.3-8.6,19.3-19.3S30.5,0.5,19.8,0.5z M25,12.1
	c-0.9,0-1.8,0-2.7,0c-0.6,0-1.1,0.4-1.2,1c0,1,0,1.9,0,2.9c1.3,0,2.6,0,3.9,0c-0.1,1.4-0.3,2.8-0.5,4.2c-1.2,0-2.3,0-3.5,0
	c0,4.2,0,8.3,0,12.5c-1.7,0-3.4,0-5.1,0c0-4.2,0-8.3,0-12.5c-0.8,0-1.7,0-2.5,0c0-1.4,0-2.8,0-4.2c0.8,0,1.7,0,2.5,0
	c0-1.4,0-2.7,0-4.1c0.1-1.1,0.5-2.2,1.3-2.9c1-0.9,2.4-1.2,3.7-1.3c1.4,0,2.8,0,4.1,0C25,9.2,25,10.6,25,12.1z"/>
</svg>
