<svg width="257" height="256" viewBox="0 0 257 256" fill="none" xmlns="http://www.w3.org/2000/svg">
<path d="M128.917 0C112.108 0 95.4632 3.39302 79.9335 9.98532C64.4038 16.5776 50.2932 26.2401 38.4073 38.4211C14.4027 63.0217 0.916992 96.3873 0.916992 131.178C0.916992 189.158 37.653 238.35 88.469 255.797C94.869 256.846 96.917 252.78 96.917 249.238V227.069C61.461 234.94 53.909 209.491 53.909 209.491C48.021 194.274 39.701 190.208 39.701 190.208C28.053 182.075 40.597 182.337 40.597 182.337C53.397 183.255 60.181 195.849 60.181 195.849C71.317 215.788 90.133 209.885 97.429 206.736C98.581 198.21 101.909 192.438 105.493 189.158C77.077 185.879 47.253 174.598 47.253 124.619C47.253 110.058 52.117 98.3834 60.437 89.0698C59.157 85.7903 54.677 72.1478 61.717 54.4388C61.717 54.4388 72.469 50.897 96.917 67.819C107.029 64.933 118.037 63.4901 128.917 63.4901C139.797 63.4901 150.805 64.933 160.917 67.819C185.365 50.897 196.117 54.4388 196.117 54.4388C203.157 72.1478 198.677 85.7903 197.397 89.0698C205.717 98.3834 210.581 110.058 210.581 124.619C210.581 174.729 180.629 185.748 152.085 189.027C156.693 193.094 160.917 201.096 160.917 213.295V249.238C160.917 252.78 162.965 256.977 169.493 255.797C220.309 238.219 256.917 189.158 256.917 131.178C256.917 113.951 253.606 96.8935 247.174 80.9783C240.741 65.063 231.313 50.6021 219.427 38.4211C207.541 26.2401 193.43 16.5776 177.9 9.98532C162.371 3.39302 145.726 0 128.917 0Z" fill="#FCFC6F"/>
</svg>
