<svg width="257" height="256" viewBox="0 0 257 256" fill="none" xmlns="http://www.w3.org/2000/svg">
<path d="M128.917 0C58.2237 0 0.916992 57.3067 0.916992 128C0.916992 198.693 58.2237 256 128.917 256C199.61 256 256.917 198.693 256.917 128C256.917 57.3067 199.61 0 128.917 0ZM97.5837 181.053H71.6637V97.64H97.5837V181.053ZM84.4637 87.4C76.277 87.4 70.9837 81.6 70.9837 74.4267C70.9837 67.1067 76.437 61.48 84.797 61.48C93.157 61.48 98.277 67.1067 98.437 74.4267C98.437 81.6 93.157 87.4 84.4637 87.4ZM192.25 181.053H166.33V134.827C166.33 124.067 162.57 116.76 153.197 116.76C146.037 116.76 141.784 121.707 139.904 126.467C139.21 128.16 139.037 130.56 139.037 132.947V181.04H113.104V124.24C113.104 113.827 112.77 105.12 112.424 97.6267H134.944L136.13 109.213H136.65C140.064 103.773 148.424 95.7467 162.41 95.7467C179.464 95.7467 192.25 107.173 192.25 131.733V181.053Z" fill="#FCFC6F"/>
</svg>
