<svg width="257" height="256" viewBox="0 0 257 256" fill="none" xmlns="http://www.w3.org/2000/svg">
<path fill-rule="evenodd" clip-rule="evenodd" d="M38.417 37.49C62.3975 13.4939 94.9766 0 128.917 0C162.857 0 195.437 13.4939 219.417 37.49C243.417 61.4861 256.917 94.0659 256.917 128C256.917 161.934 243.417 194.514 219.417 218.51C195.437 242.506 162.857 256 128.917 256C94.9766 256 62.3975 242.506 38.417 218.51C14.417 194.514 0.916992 161.934 0.916992 128C0.923828 94.0515 14.4121 61.4956 38.417 37.49ZM133.497 94.4958C121.057 99.6741 96.1768 110.392 58.8574 126.648C52.7969 129.058 49.6172 131.416 49.3369 133.72C48.8447 137.612 53.7188 139.147 60.3428 141.233C61.251 141.519 62.1924 141.816 63.1572 142.13C69.6973 144.254 78.4971 146.74 83.0566 146.838C87.2168 146.928 91.8369 145.218 96.9365 141.71C131.817 118.176 149.797 106.28 150.937 106.024C151.737 105.844 152.837 105.616 153.577 106.282C154.337 106.946 154.257 108.206 154.177 108.544C153.705 110.599 134.633 128.332 124.706 137.562C121.584 140.464 119.367 142.525 118.917 142.994C117.912 144.038 116.888 145.025 115.903 145.974C109.834 151.825 105.28 156.214 116.157 163.38C121.429 166.853 125.638 169.719 129.843 172.583C134.364 175.663 138.883 178.741 144.717 182.568C146.217 183.551 147.649 184.572 149.044 185.566C154.345 189.345 159.106 192.739 164.997 192.198C168.417 191.884 171.957 188.668 173.737 179.076C177.977 156.406 186.317 107.29 188.237 87.05C188.417 85.2781 188.197 83.0081 188.037 82.012C187.857 81.0149 187.497 79.595 186.217 78.5449C184.677 77.3 182.317 77.0378 181.257 77.0549C176.437 77.1418 169.057 79.71 133.497 94.4958Z" fill="#FCFC6F"/>
</svg>
